<svg width="48" height="48" viewBox="0 0 48 48" fill="none" xmlns="http://www.w3.org/2000/svg">
<g clip-path="url(#clip0_320_5103)">
<rect width="48" height="48" rx="3" fill="#1569A6"/>
<path d="M11.1577 21.8891C10.8016 19.7894 10.8657 17.6386 11.3462 15.5645C11.9708 12.8182 13.2012 10.9091 14.3346 10.9091C15.0265 10.9091 15.1262 11.0918 15.1746 11.1818C15.4115 11.6209 16.2515 14.1627 11.7742 23.8691C11.4837 23.2394 11.2764 22.5737 11.1577 21.8891ZM52 4.36364V43.6364C52 44.7937 51.5462 45.9036 50.7383 46.7219C49.9305 47.5403 48.8348 48 47.6923 48H0.307693C-0.834779 48 -1.93046 47.5403 -2.73831 46.7219C-3.54616 45.9036 -4 44.7937 -4 43.6364V4.36364C-4 3.20633 -3.54616 2.09642 -2.73831 1.27808C-1.93046 0.459739 -0.834779 0 0.307693 0H47.6923C48.8348 0 49.9305 0.459739 50.7383 1.27808C51.5462 2.09642 52 3.20633 52 4.36364ZM12.1538 32.7273C12.6923 31.7482 13.2146 30.7309 13.7423 29.6891C16.5262 29.6018 19.7219 27.6245 23.2919 23.7764C24.6381 26.4191 26.3558 27.9355 28.3723 28.29C30.5262 28.6664 32.68 27.6409 34.8177 25.2355C36.4331 26.7436 39.1658 28.3636 43.3792 28.3636C43.9505 28.3636 44.4983 28.1338 44.9022 27.7246C45.3062 27.3154 45.5331 26.7605 45.5331 26.1818C45.5331 25.6032 45.3062 25.0482 44.9022 24.639C44.4983 24.2299 43.9505 24 43.3792 24C38.5573 24 36.8369 21.0327 36.6915 20.7655C36.533 20.42 36.2862 20.1237 35.9766 19.9075C35.667 19.6912 35.3059 19.5627 34.9308 19.5355C34.5486 19.5085 34.1663 19.5852 33.8232 19.7578C33.4801 19.9304 33.1886 20.1926 32.9788 20.5173C31.1535 23.2445 29.7831 24.1064 29.1046 23.9891C28.0277 23.8009 26.6412 21.2618 26.0812 19.08C25.9815 18.6872 25.7757 18.3303 25.487 18.0494C25.1982 17.7685 24.8379 17.5747 24.4464 17.4897C24.0549 17.4048 23.6478 17.432 23.2708 17.5684C22.8938 17.7048 22.5617 17.9449 22.3119 18.2618C19.9212 21.2455 17.9235 23.1136 16.3538 24.1691C20.6077 14.4464 19.9265 10.9173 18.9385 9.08727C18.4404 8.13818 17.1588 6.54545 14.3346 6.54545C10.9854 6.54545 8.29846 9.54545 7.14885 14.58C6.53788 17.2475 6.46189 20.0122 6.92539 22.71C7.38308 25.1373 8.31731 27 9.66077 28.1973C8.85308 29.7818 8.02115 31.3145 7.23769 32.7273H4.61539C4.04415 32.7273 3.49631 32.9571 3.09239 33.3663C2.68846 33.7755 2.46154 34.3304 2.46154 34.9091C2.46154 35.4877 2.68846 36.0427 3.09239 36.4519C3.49631 36.861 4.04415 37.0909 4.61539 37.0909H4.73385C3.58692 39.0327 2.81962 40.2518 2.80077 40.2791C2.49302 40.7666 2.38905 41.358 2.51174 41.9232C2.63443 42.4883 2.97373 42.981 3.455 43.2927C3.93627 43.6045 4.52008 43.7098 5.078 43.5855C5.63592 43.4612 6.12225 43.1175 6.43 42.63C6.52692 42.48 7.90269 40.2927 9.73885 37.0909H43.3846C43.9559 37.0909 44.5037 36.861 44.9076 36.4519C45.3115 36.0427 45.5385 35.4877 45.5385 34.9091C45.5385 34.3304 45.3115 33.7755 44.9076 33.3663C44.5037 32.9571 43.9559 32.7273 43.3846 32.7273H12.1538Z" fill="white"/>
</g>
<defs>
<clipPath id="clip0_320_5103">
<rect width="48" height="48" rx="3" fill="white"/>
</clipPath>
</defs>
</svg>
