<svg width="200" height="46" viewBox="0 0 200 46" fill="none" xmlns="http://www.w3.org/2000/svg">
<path d="M14.1327 21.1655C13.8999 19.8105 13.9418 18.4226 14.2559 17.0841C14.6642 15.3119 15.4685 14.0799 16.2095 14.0799C16.6618 14.0799 16.7269 14.1978 16.7586 14.2559C16.9134 14.5392 17.4625 16.1795 14.5357 22.4432C14.3458 22.0369 14.2103 21.6073 14.1327 21.1655ZM40.8313 9.85598V35.1994C40.8313 35.9462 40.5346 36.6625 40.0065 37.1906C39.4784 37.7187 38.7622 38.0153 38.0154 38.0153H7.04006C6.29323 38.0153 5.57698 37.7187 5.04889 37.1906C4.5208 36.6625 4.22412 35.9462 4.22412 35.1994V9.85598C4.22412 9.10914 4.5208 8.3929 5.04889 7.86481C5.57698 7.33672 6.29323 7.04004 7.04006 7.04004H38.0154C38.7622 7.04004 39.4784 7.33672 40.0065 7.86481C40.5346 8.3929 40.8313 9.10914 40.8313 9.85598ZM14.7839 28.1596C15.1359 27.5277 15.4773 26.8713 15.8223 26.199C17.6421 26.1427 19.7311 24.8667 22.0648 22.3834C22.9448 24.0888 24.0677 25.0673 25.3859 25.2961C26.7939 25.539 28.2018 24.8772 29.5992 23.325C30.6552 24.2982 32.4416 25.3436 35.1959 25.3436C35.5693 25.3436 35.9274 25.1953 36.1915 24.9312C36.4555 24.6672 36.6039 24.3091 36.6039 23.9357C36.6039 23.5622 36.4555 23.2041 36.1915 22.9401C35.9274 22.676 35.5693 22.5277 35.1959 22.5277C32.0438 22.5277 30.9192 20.6129 30.8242 20.4404C30.7206 20.2174 30.5592 20.0263 30.3568 19.8867C30.1544 19.7471 29.9184 19.6642 29.6732 19.6466C29.4233 19.6292 29.1734 19.6788 28.9491 19.7901C28.7248 19.9015 28.5343 20.0707 28.3972 20.2802C27.2039 22.0402 26.3081 22.5963 25.8646 22.5207C25.1606 22.3992 24.2542 20.7607 23.8882 19.3527C23.823 19.0993 23.6885 18.869 23.4997 18.6877C23.311 18.5064 23.0754 18.3813 22.8195 18.3265C22.5636 18.2717 22.2975 18.2892 22.051 18.3772C21.8046 18.4653 21.5875 18.6202 21.4242 18.8247C19.8614 20.7501 18.5555 21.9557 17.5294 22.6368C20.3102 16.3626 19.8649 14.0852 19.219 12.9042C18.8934 12.2918 18.0557 11.2639 16.2095 11.2639C14.0201 11.2639 12.2636 13.1999 11.5121 16.4488C11.1127 18.1702 11.0631 19.9543 11.366 21.6952C11.6652 23.2616 12.2759 24.4637 13.1542 25.2363C12.6262 26.2588 12.0823 27.2479 11.5702 28.1596H9.856C9.48258 28.1596 9.12446 28.3079 8.86041 28.572C8.59637 28.836 8.44803 29.1941 8.44803 29.5675C8.44803 29.941 8.59637 30.2991 8.86041 30.5631C9.12446 30.8272 9.48258 30.9755 9.856 30.9755H9.93343C9.18369 32.2286 8.6821 33.0153 8.66978 33.0329C8.4686 33.3475 8.40064 33.7291 8.48084 34.0939C8.56105 34.4586 8.78285 34.7765 9.09745 34.9777C9.41206 35.1788 9.79369 35.2468 10.1584 35.1666C10.5231 35.0864 10.841 34.8646 11.0422 34.55C11.1056 34.4532 12.0049 33.0417 13.2052 30.9755H35.1994C35.5728 30.9755 35.931 30.8272 36.195 30.5631C36.4591 30.2991 36.6074 29.941 36.6074 29.5675C36.6074 29.1941 36.4591 28.836 36.195 28.572C35.931 28.3079 35.5728 28.1596 35.1994 28.1596H14.7839Z" fill="#17527D"/>
<path d="M171.74 29.3989C170.493 29.3989 169.402 29.1651 168.466 28.6975C167.544 28.2169 166.823 27.5675 166.304 26.7492C165.797 25.9179 165.544 24.9762 165.544 23.9241C165.544 22.872 165.791 21.9368 166.284 21.1185C166.791 20.2872 167.486 19.6443 168.369 19.1897C169.252 18.7221 170.246 18.4883 171.35 18.4883C172.389 18.4883 173.337 18.7026 174.195 19.1312C175.052 19.5469 175.734 20.1638 176.24 20.9821C176.747 21.8004 177 22.7941 177 23.9631C177 24.093 176.994 24.2423 176.981 24.4112C176.968 24.58 176.955 24.7359 176.942 24.8788H168.583V22.9305H174.974L173.571 23.476C173.584 22.9954 173.493 22.5798 173.298 22.2291C173.116 21.8784 172.857 21.6056 172.519 21.4108C172.194 21.2159 171.811 21.1185 171.369 21.1185C170.928 21.1185 170.538 21.2159 170.2 21.4108C169.876 21.6056 169.622 21.8849 169.441 22.2485C169.259 22.5992 169.168 23.0149 169.168 23.4955V24.0605C169.168 24.58 169.272 25.0282 169.48 25.4048C169.7 25.7815 170.012 26.0738 170.415 26.2816C170.817 26.4764 171.298 26.5738 171.857 26.5738C172.376 26.5738 172.818 26.5024 173.181 26.3595C173.558 26.2036 173.928 25.9698 174.292 25.6581L176.24 27.6844C175.734 28.2429 175.11 28.6715 174.37 28.9703C173.629 29.256 172.753 29.3989 171.74 29.3989Z" fill="#17527D"/>
<path d="M157.702 29.2235V18.6636H161.228V21.742L160.702 20.8652C161.014 20.0729 161.52 19.4819 162.222 19.0923C162.923 18.6896 163.774 18.4883 164.774 18.4883V21.8199C164.605 21.7939 164.456 21.7809 164.326 21.7809C164.209 21.768 164.079 21.7615 163.936 21.7615C163.183 21.7615 162.572 21.9693 162.105 22.3849C161.637 22.7876 161.403 23.45 161.403 24.3722V29.2235H157.702Z" fill="#17527D"/>
<path d="M148.653 29.3993C147.796 29.3993 147.023 29.2305 146.335 28.8928C145.659 28.5551 145.127 28.029 144.737 27.3146C144.36 26.5872 144.172 25.6715 144.172 24.5675V18.6641H147.874V23.9635C147.874 24.7818 148.023 25.3663 148.322 25.717C148.634 26.0677 149.069 26.243 149.627 26.243C149.991 26.243 150.322 26.1586 150.621 25.9898C150.92 25.8209 151.16 25.5546 151.342 25.1909C151.524 24.8143 151.614 24.3337 151.614 23.7492V18.6641H155.316V29.224H151.79V26.243L152.472 27.0808C152.108 27.8602 151.582 28.4447 150.894 28.8343C150.205 29.211 149.458 29.3993 148.653 29.3993Z" fill="#17527D"/>
<path d="M140.212 29.4004C138.861 29.4004 137.809 29.0691 137.056 28.4067C136.303 27.7313 135.926 26.7182 135.926 25.3673V16.3076H139.628V25.3284C139.628 25.705 139.732 26.0038 139.939 26.2246C140.147 26.4324 140.414 26.5363 140.738 26.5363C141.18 26.5363 141.557 26.4259 141.868 26.2051L142.784 28.7964C142.472 29.0042 142.089 29.1536 141.634 29.2445C141.18 29.3484 140.706 29.4004 140.212 29.4004ZM134.387 21.8214V19.0548H142.044V21.8214H134.387Z" fill="#17527D"/>
<path d="M129.712 29.2235V27.2557L129.459 26.7687V23.1448C129.459 22.5603 129.277 22.1122 128.913 21.8004C128.563 21.4757 127.998 21.3134 127.218 21.3134C126.712 21.3134 126.199 21.3978 125.679 21.5666C125.16 21.7225 124.718 21.9433 124.354 22.2291L123.107 19.7157C123.705 19.3261 124.419 19.0273 125.25 18.8195C126.095 18.5987 126.933 18.4883 127.764 18.4883C129.478 18.4883 130.803 18.8844 131.738 19.6768C132.687 20.4561 133.161 21.6835 133.161 23.3591V29.2235H129.712ZM126.595 29.3989C125.751 29.3989 125.036 29.256 124.452 28.9703C123.867 28.6845 123.419 28.2948 123.107 27.8013C122.809 27.3077 122.659 26.7557 122.659 26.1452C122.659 25.4958 122.822 24.9372 123.146 24.4696C123.484 23.989 123.997 23.6254 124.685 23.3786C125.374 23.1188 126.264 22.9889 127.355 22.9889H129.848V24.9178H127.861C127.264 24.9178 126.842 25.0152 126.595 25.21C126.361 25.4048 126.244 25.6646 126.244 25.9893C126.244 26.314 126.367 26.5738 126.614 26.7687C126.861 26.9635 127.199 27.0609 127.627 27.0609C128.03 27.0609 128.394 26.9635 128.718 26.7687C129.056 26.5608 129.303 26.2491 129.459 25.8335L129.965 27.1973C129.771 27.9247 129.387 28.4767 128.816 28.8534C128.257 29.2171 127.517 29.3989 126.595 29.3989Z" fill="#17527D"/>
<path d="M116.575 18.4883C117.393 18.4883 118.134 18.6571 118.796 18.9948C119.458 19.3196 119.978 19.8261 120.355 20.5145C120.744 21.2029 120.939 22.0927 120.939 23.1837V29.2235H117.237V23.7877C117.237 23.0344 117.081 22.4888 116.77 22.1511C116.471 21.8004 116.049 21.6251 115.503 21.6251C115.114 21.6251 114.756 21.716 114.432 21.8978C114.107 22.0667 113.854 22.333 113.672 22.6967C113.49 23.0603 113.399 23.5344 113.399 24.1189V29.2235H109.697V18.6636H113.224V21.664L112.542 20.7873C112.944 20.021 113.496 19.4495 114.198 19.0728C114.899 18.6831 115.692 18.4883 116.575 18.4883Z" fill="#17527D"/>
<path d="M101.123 33.1786C100.11 33.1786 99.1425 33.0617 98.2203 32.8279C97.3111 32.5941 96.5318 32.2499 95.8823 31.7953L97.2267 29.2041C97.6683 29.5548 98.2138 29.8275 98.8633 30.0224C99.5257 30.2302 100.169 30.3341 100.792 30.3341C101.792 30.3341 102.513 30.1133 102.955 29.6717C103.396 29.243 103.617 28.6131 103.617 27.7818V26.5349L103.812 23.5734L103.793 20.5925V18.6636H107.319V27.2947C107.319 29.295 106.78 30.7757 105.702 31.7369C104.624 32.6981 103.098 33.1786 101.123 33.1786ZM100.48 28.678C99.5452 28.678 98.6814 28.4702 97.8891 28.0546C97.1098 27.6259 96.4798 27.0349 95.9992 26.2816C95.5317 25.5152 95.2979 24.6125 95.2979 23.5734C95.2979 22.5343 95.5317 21.6381 95.9992 20.8847C96.4798 20.1184 97.1098 19.5274 97.8891 19.1117C98.6814 18.6961 99.5452 18.4883 100.48 18.4883C101.377 18.4883 102.143 18.6701 102.779 19.0338C103.416 19.3845 103.896 19.9365 104.221 20.6899C104.559 21.4432 104.728 22.4044 104.728 23.5734C104.728 24.7424 104.559 25.7036 104.221 26.4569C103.896 27.2103 103.416 27.7688 102.779 28.1325C102.143 28.4962 101.377 28.678 100.48 28.678ZM101.357 25.736C101.799 25.736 102.188 25.6451 102.526 25.4633C102.877 25.2814 103.15 25.0282 103.344 24.7034C103.552 24.3787 103.656 24.002 103.656 23.5734C103.656 23.1448 103.552 22.7681 103.344 22.4434C103.15 22.1187 102.877 21.8719 102.526 21.703C102.188 21.5212 101.799 21.4303 101.357 21.4303C100.916 21.4303 100.519 21.5212 100.169 21.703C99.818 21.8719 99.5387 22.1187 99.3309 22.4434C99.1361 22.7681 99.0386 23.1448 99.0386 23.5734C99.0386 24.002 99.1361 24.3787 99.3309 24.7034C99.5387 25.0282 99.818 25.2814 100.169 25.4633C100.519 25.6451 100.916 25.736 101.357 25.736Z" fill="#17527D"/>
<path d="M89.8525 29.2241V18.6642H93.5543V29.2241H89.8525ZM91.7034 17.4952C91.028 17.4952 90.4825 17.3068 90.0668 16.9302C89.6512 16.5535 89.4434 16.0859 89.4434 15.5274C89.4434 14.9689 89.6512 14.5013 90.0668 14.1246C90.4825 13.7479 91.028 13.5596 91.7034 13.5596C92.3788 13.5596 92.9244 13.7414 93.34 14.1051C93.7557 14.4558 93.9635 14.9104 93.9635 15.4689C93.9635 16.0534 93.7557 16.5405 93.34 16.9302C92.9374 17.3068 92.3918 17.4952 91.7034 17.4952Z" fill="#17527D"/>
<path d="M82.2061 29.4983C81.089 29.4983 80.0109 29.3619 78.9718 29.0891C77.9457 28.8034 77.1079 28.4397 76.4585 27.998L77.7249 25.1535C78.3354 25.5432 79.0368 25.8679 79.8291 26.1277C80.6344 26.3744 81.4332 26.4978 82.2255 26.4978C82.7581 26.4978 83.1867 26.4524 83.5114 26.3615C83.8361 26.2575 84.0699 26.1277 84.2128 25.9718C84.3687 25.8029 84.4466 25.6081 84.4466 25.3873C84.4466 25.0756 84.3037 24.8288 84.018 24.6469C83.7322 24.4651 83.3621 24.3157 82.9074 24.1988C82.4528 24.0819 81.9463 23.965 81.3878 23.8481C80.8422 23.7312 80.2902 23.5818 79.7317 23.4C79.1861 23.2182 78.6861 22.9844 78.2315 22.6986C77.7769 22.3999 77.4067 22.0167 77.1209 21.5491C76.8352 21.0685 76.6923 20.4645 76.6923 19.7371C76.6923 18.9189 76.9131 18.1785 77.3547 17.5161C77.8093 16.8536 78.4848 16.3211 79.381 15.9184C80.2772 15.5158 81.3943 15.3145 82.7321 15.3145C83.6283 15.3145 84.5051 15.4184 85.3623 15.6262C86.2326 15.821 87.0054 16.1133 87.6808 16.5029L86.4924 19.367C85.8429 19.0163 85.2 18.7565 84.5635 18.5876C83.9271 18.4058 83.3101 18.3149 82.7126 18.3149C82.1801 18.3149 81.7514 18.3733 81.4267 18.4902C81.102 18.5941 80.8682 18.737 80.7253 18.9189C80.5824 19.1007 80.511 19.3085 80.511 19.5423C80.511 19.8411 80.6474 20.0814 80.9202 20.2632C81.2059 20.4321 81.5761 20.5749 82.0307 20.6918C82.4983 20.7957 83.0049 20.9061 83.5504 21.023C84.1089 21.1399 84.6609 21.2893 85.2065 21.4712C85.765 21.64 86.2716 21.8738 86.7262 22.1726C87.1808 22.4583 87.5445 22.8415 87.8172 23.3221C88.103 23.7897 88.2459 24.3807 88.2459 25.095C88.2459 25.8874 88.0186 26.6212 87.5639 27.2966C87.1223 27.9591 86.4534 28.4916 85.5572 28.8943C84.6739 29.2969 83.5569 29.4983 82.2061 29.4983Z" fill="#17527D"/>
<path d="M69.6592 25.0946V22.25H75.3483V25.0946H69.6592Z" fill="#17527D"/>
<path d="M60.9244 20.8649H67.2564V23.7484H60.9244V20.8649ZM61.1971 26.2423H68.328V29.2232H57.3784V15.585H68.0747V18.5659H61.1971V26.2423Z" fill="#17527D"/>
</svg>
